<mxfile host="app.diagrams.net" agent="Mozilla/5.0 (Windows NT 10.0; Win64; x64) AppleWebKit/537.36 (KHTML, like Gecko) Chrome/103.0.0.0 Safari/537.36" version="24.7.16">
  <diagram name="Página-1" id="BKh5HEidqJ47ucqdIPJj">
    <mxGraphModel dx="2021" dy="1935" grid="1" gridSize="10" guides="1" tooltips="1" connect="1" arrows="1" fold="1" page="1" pageScale="1" pageWidth="827" pageHeight="1169" math="0" shadow="0">
      <root>
        <mxCell id="0" />
        <mxCell id="1" parent="0" />
        <mxCell id="xZgm0PM6zPpua3AeY3MV-1" value="USUARIO" style="rounded=0;whiteSpace=wrap;html=1;" vertex="1" parent="1">
          <mxGeometry x="-20" y="120" width="120" height="60" as="geometry" />
        </mxCell>
        <mxCell id="xZgm0PM6zPpua3AeY3MV-2" value="CUENTA" style="rounded=0;whiteSpace=wrap;html=1;" vertex="1" parent="1">
          <mxGeometry x="460" y="120" width="120" height="60" as="geometry" />
        </mxCell>
        <mxCell id="xZgm0PM6zPpua3AeY3MV-3" value="TRANSACCIÓN" style="rounded=0;whiteSpace=wrap;html=1;" vertex="1" parent="1">
          <mxGeometry x="-20" y="-90" width="120" height="60" as="geometry" />
        </mxCell>
        <mxCell id="xZgm0PM6zPpua3AeY3MV-5" value="" style="endArrow=none;html=1;rounded=0;entryX=0;entryY=1;entryDx=0;entryDy=0;" edge="1" parent="1" source="xZgm0PM6zPpua3AeY3MV-12" target="xZgm0PM6zPpua3AeY3MV-1">
          <mxGeometry width="50" height="50" relative="1" as="geometry">
            <mxPoint x="-30" y="220" as="sourcePoint" />
            <mxPoint x="20" y="170" as="targetPoint" />
          </mxGeometry>
        </mxCell>
        <mxCell id="xZgm0PM6zPpua3AeY3MV-8" value="nombre" style="ellipse;whiteSpace=wrap;html=1;" vertex="1" parent="1">
          <mxGeometry y="280" width="100" height="40" as="geometry" />
        </mxCell>
        <mxCell id="xZgm0PM6zPpua3AeY3MV-11" value="nombre" style="ellipse;whiteSpace=wrap;html=1;" vertex="1" parent="1">
          <mxGeometry x="450" y="230" width="100" height="40" as="geometry" />
        </mxCell>
        <mxCell id="xZgm0PM6zPpua3AeY3MV-12" value="id_cuenta" style="ellipse;whiteSpace=wrap;html=1;" vertex="1" parent="1">
          <mxGeometry y="220" width="100" height="40" as="geometry" />
        </mxCell>
        <mxCell id="xZgm0PM6zPpua3AeY3MV-14" value="teléfono" style="ellipse;whiteSpace=wrap;html=1;" vertex="1" parent="1">
          <mxGeometry x="-10" y="340" width="100" height="40" as="geometry" />
        </mxCell>
        <mxCell id="xZgm0PM6zPpua3AeY3MV-15" value="correo_electrónico&amp;nbsp;" style="ellipse;whiteSpace=wrap;html=1;" vertex="1" parent="1">
          <mxGeometry x="440" y="280" width="110" height="40" as="geometry" />
        </mxCell>
        <mxCell id="xZgm0PM6zPpua3AeY3MV-16" value="contraseña" style="ellipse;whiteSpace=wrap;html=1;" vertex="1" parent="1">
          <mxGeometry x="450" y="330" width="100" height="40" as="geometry" />
        </mxCell>
        <mxCell id="xZgm0PM6zPpua3AeY3MV-18" value="inicio_sesión&amp;nbsp;" style="ellipse;whiteSpace=wrap;html=1;" vertex="1" parent="1">
          <mxGeometry x="110" y="-150" width="100" height="40" as="geometry" />
        </mxCell>
        <mxCell id="xZgm0PM6zPpua3AeY3MV-19" value="transacción_realizada" style="ellipse;whiteSpace=wrap;html=1;" vertex="1" parent="1">
          <mxGeometry x="-160" y="-150" width="140" height="40" as="geometry" />
        </mxCell>
        <mxCell id="xZgm0PM6zPpua3AeY3MV-20" value="" style="endArrow=none;html=1;rounded=0;exitX=0;exitY=0.5;exitDx=0;exitDy=0;entryX=0;entryY=1;entryDx=0;entryDy=0;" edge="1" parent="1" source="xZgm0PM6zPpua3AeY3MV-8" target="xZgm0PM6zPpua3AeY3MV-1">
          <mxGeometry width="50" height="50" relative="1" as="geometry">
            <mxPoint x="-50" y="290" as="sourcePoint" />
            <mxPoint x="-20" y="190" as="targetPoint" />
            <Array as="points">
              <mxPoint x="-20" y="250" />
            </Array>
          </mxGeometry>
        </mxCell>
        <mxCell id="xZgm0PM6zPpua3AeY3MV-21" value="" style="endArrow=none;html=1;rounded=0;exitX=0.09;exitY=0.25;exitDx=0;exitDy=0;exitPerimeter=0;" edge="1" parent="1" source="xZgm0PM6zPpua3AeY3MV-14">
          <mxGeometry width="50" height="50" relative="1" as="geometry">
            <mxPoint x="-20" y="350" as="sourcePoint" />
            <mxPoint x="-20" y="180" as="targetPoint" />
            <Array as="points">
              <mxPoint x="-20" y="320" />
              <mxPoint x="-30" y="240" />
            </Array>
          </mxGeometry>
        </mxCell>
        <mxCell id="xZgm0PM6zPpua3AeY3MV-22" value="" style="endArrow=none;html=1;rounded=0;exitX=1;exitY=0;exitDx=0;exitDy=0;entryX=0.917;entryY=1;entryDx=0;entryDy=0;entryPerimeter=0;" edge="1" parent="1" source="xZgm0PM6zPpua3AeY3MV-11" target="xZgm0PM6zPpua3AeY3MV-2">
          <mxGeometry width="50" height="50" relative="1" as="geometry">
            <mxPoint x="559" y="220" as="sourcePoint" />
            <mxPoint x="580" y="180" as="targetPoint" />
          </mxGeometry>
        </mxCell>
        <mxCell id="xZgm0PM6zPpua3AeY3MV-23" value="" style="endArrow=none;html=1;rounded=0;entryX=1;entryY=1;entryDx=0;entryDy=0;exitX=1;exitY=0.5;exitDx=0;exitDy=0;" edge="1" parent="1" source="xZgm0PM6zPpua3AeY3MV-15" target="xZgm0PM6zPpua3AeY3MV-2">
          <mxGeometry width="50" height="50" relative="1" as="geometry">
            <mxPoint x="590" y="280" as="sourcePoint" />
            <mxPoint x="590" y="190" as="targetPoint" />
            <Array as="points">
              <mxPoint x="580" y="230" />
            </Array>
          </mxGeometry>
        </mxCell>
        <mxCell id="xZgm0PM6zPpua3AeY3MV-24" value="" style="endArrow=none;html=1;rounded=0;exitX=0.97;exitY=0.3;exitDx=0;exitDy=0;exitPerimeter=0;" edge="1" parent="1" source="xZgm0PM6zPpua3AeY3MV-16">
          <mxGeometry width="50" height="50" relative="1" as="geometry">
            <mxPoint x="620" y="250" as="sourcePoint" />
            <mxPoint x="580" y="180" as="targetPoint" />
            <Array as="points">
              <mxPoint x="600" y="240" />
            </Array>
          </mxGeometry>
        </mxCell>
        <mxCell id="xZgm0PM6zPpua3AeY3MV-25" value="" style="endArrow=none;html=1;rounded=0;exitX=1;exitY=0;exitDx=0;exitDy=0;entryX=0.42;entryY=0.975;entryDx=0;entryDy=0;entryPerimeter=0;" edge="1" parent="1" source="xZgm0PM6zPpua3AeY3MV-3" target="xZgm0PM6zPpua3AeY3MV-18">
          <mxGeometry width="50" height="50" relative="1" as="geometry">
            <mxPoint x="350" y="20" as="sourcePoint" />
            <mxPoint x="400" y="-30" as="targetPoint" />
          </mxGeometry>
        </mxCell>
        <mxCell id="xZgm0PM6zPpua3AeY3MV-26" value="" style="endArrow=none;html=1;rounded=0;exitX=0;exitY=0;exitDx=0;exitDy=0;entryX=0.8;entryY=0.95;entryDx=0;entryDy=0;entryPerimeter=0;" edge="1" parent="1" source="xZgm0PM6zPpua3AeY3MV-3" target="xZgm0PM6zPpua3AeY3MV-19">
          <mxGeometry width="50" height="50" relative="1" as="geometry">
            <mxPoint x="190" y="10" as="sourcePoint" />
            <mxPoint x="240" y="-40" as="targetPoint" />
          </mxGeometry>
        </mxCell>
        <mxCell id="xZgm0PM6zPpua3AeY3MV-31" style="edgeStyle=orthogonalEdgeStyle;rounded=0;orthogonalLoop=1;jettySize=auto;html=1;exitX=0.5;exitY=0;exitDx=0;exitDy=0;entryX=0.5;entryY=1;entryDx=0;entryDy=0;endArrow=none;endFill=0;" edge="1" parent="1" source="xZgm0PM6zPpua3AeY3MV-29" target="xZgm0PM6zPpua3AeY3MV-3">
          <mxGeometry relative="1" as="geometry" />
        </mxCell>
        <mxCell id="xZgm0PM6zPpua3AeY3MV-32" style="edgeStyle=orthogonalEdgeStyle;rounded=0;orthogonalLoop=1;jettySize=auto;html=1;exitX=0.5;exitY=1;exitDx=0;exitDy=0;entryX=0.5;entryY=0;entryDx=0;entryDy=0;endArrow=none;endFill=0;" edge="1" parent="1" source="xZgm0PM6zPpua3AeY3MV-29" target="xZgm0PM6zPpua3AeY3MV-1">
          <mxGeometry relative="1" as="geometry" />
        </mxCell>
        <mxCell id="xZgm0PM6zPpua3AeY3MV-29" value="Realiza" style="rhombus;whiteSpace=wrap;html=1;" vertex="1" parent="1">
          <mxGeometry x="-10" y="20" width="100" height="50" as="geometry" />
        </mxCell>
        <mxCell id="xZgm0PM6zPpua3AeY3MV-37" style="edgeStyle=orthogonalEdgeStyle;rounded=0;orthogonalLoop=1;jettySize=auto;html=1;exitX=1;exitY=0.5;exitDx=0;exitDy=0;entryX=0;entryY=0.5;entryDx=0;entryDy=0;endArrow=none;endFill=0;" edge="1" parent="1" source="xZgm0PM6zPpua3AeY3MV-36" target="xZgm0PM6zPpua3AeY3MV-2">
          <mxGeometry relative="1" as="geometry" />
        </mxCell>
        <mxCell id="xZgm0PM6zPpua3AeY3MV-38" style="edgeStyle=orthogonalEdgeStyle;rounded=0;orthogonalLoop=1;jettySize=auto;html=1;exitX=0;exitY=0.5;exitDx=0;exitDy=0;entryX=1;entryY=0.5;entryDx=0;entryDy=0;endArrow=none;endFill=0;" edge="1" parent="1" source="xZgm0PM6zPpua3AeY3MV-36" target="xZgm0PM6zPpua3AeY3MV-1">
          <mxGeometry relative="1" as="geometry" />
        </mxCell>
        <mxCell id="xZgm0PM6zPpua3AeY3MV-36" value="Posee" style="rhombus;whiteSpace=wrap;html=1;" vertex="1" parent="1">
          <mxGeometry x="240" y="125" width="100" height="50" as="geometry" />
        </mxCell>
        <mxCell id="xZgm0PM6zPpua3AeY3MV-39" value="1" style="text;html=1;align=center;verticalAlign=middle;resizable=0;points=[];autosize=1;strokeColor=none;fillColor=none;" vertex="1" parent="1">
          <mxGeometry x="160" y="120" width="30" height="30" as="geometry" />
        </mxCell>
        <mxCell id="xZgm0PM6zPpua3AeY3MV-40" value="N" style="text;html=1;align=center;verticalAlign=middle;resizable=0;points=[];autosize=1;strokeColor=none;fillColor=none;" vertex="1" parent="1">
          <mxGeometry x="384" y="120" width="30" height="30" as="geometry" />
        </mxCell>
        <mxCell id="xZgm0PM6zPpua3AeY3MV-41" value="1" style="text;html=1;align=center;verticalAlign=middle;resizable=0;points=[];autosize=1;strokeColor=none;fillColor=none;" vertex="1" parent="1">
          <mxGeometry x="50" y="-30" width="30" height="30" as="geometry" />
        </mxCell>
        <mxCell id="xZgm0PM6zPpua3AeY3MV-42" value="N" style="text;html=1;align=center;verticalAlign=middle;resizable=0;points=[];autosize=1;strokeColor=none;fillColor=none;" vertex="1" parent="1">
          <mxGeometry x="50" y="90" width="30" height="30" as="geometry" />
        </mxCell>
      </root>
    </mxGraphModel>
  </diagram>
</mxfile>
